<?xml version="1.0" encoding="UTF-8"?>
<svg width="17px" height="17px" viewBox="0 0 17 17" version="1.1" xmlns="http://www.w3.org/2000/svg" xmlns:xlink="http://www.w3.org/1999/xlink">
    <title>Group</title>
    <g id="Page-1" stroke="none" stroke-width="1" fill="none" fill-rule="evenodd">
        <g id="5" transform="translate(-385.000000, -499.000000)" fill="#000000" fill-rule="nonzero">
            <g id="Group-4" transform="translate(59.000000, 320.000000)">
                <g id="Group" transform="translate(2.000000, 0.000000)">
                    <g id="Group-8" transform="translate(14.000000, 96.000000)">
                        <g id="Group-9" transform="translate(0.000000, 73.000000)">
                            <g id="Group" transform="translate(310.000000, 10.000000)">
                                <path d="M8.5,0 C3.81290385,0 0,3.81290385 0,8.5 C0,13.1870962 3.81290385,17 8.5,17 C13.1870962,17 17,13.1870962 17,8.5 C17,3.81290385 13.1870962,0 8.5,0 Z M8.5,16.3461538 C4.17382692,16.3461538 0.653846154,12.8261731 0.653846154,8.5 C0.653846154,4.17382692 4.17382692,0.653846154 8.5,0.653846154 C12.8261731,0.653846154 16.3461538,4.17382692 16.3461538,8.5 C16.3461538,12.8261731 12.8261731,16.3461538 8.5,16.3461538 Z" id="Shape"></path>
                                <path d="M8.5,12.0961538 C8.31921154,12.0961538 8.17307692,12.2422885 8.17307692,12.4230769 L8.17307692,13.0769231 C8.17307692,13.2577115 8.31921154,13.4038462 8.5,13.4038462 C8.68078846,13.4038462 8.82692308,13.2577115 8.82692308,13.0769231 L8.82692308,12.4230769 C8.82692308,12.2422885 8.68078846,12.0961538 8.5,12.0961538 Z" id="Path"></path>
                                <path d="M8.53694231,2.94263462 C8.52451923,2.94263462 8.51209615,2.94230769 8.49934615,2.94230769 C7.80757692,2.94230769 7.157,3.20875 6.66367308,3.69553846 C6.16151923,4.19082692 5.88461538,4.85219231 5.88461538,5.55769231 C5.88461538,5.73848077 6.03075,5.88461538 6.21153846,5.88461538 C6.39232692,5.88461538 6.53846154,5.73848077 6.53846154,5.55769231 C6.53846154,5.02873077 6.74605769,4.53246154 7.12267308,4.16107692 C7.49961538,3.78936538 8.00144231,3.58405769 8.52811538,3.59648077 C9.56151923,3.61086538 10.4468269,4.49617308 10.4612115,5.52957692 C10.4706923,6.21088462 10.1346154,6.83792308 9.56184615,7.20734615 C8.69223077,7.76834615 8.17307692,8.75957692 8.17307692,9.85934615 L8.17307692,10.7884615 C8.17307692,10.96925 8.31921154,11.1153846 8.5,11.1153846 C8.68078846,11.1153846 8.82692308,10.96925 8.82692308,10.7884615 L8.82692308,9.85934615 C8.82692308,8.99561538 9.24407692,8.19040385 9.91623077,7.75657692 C10.6795962,7.26423077 11.1278077,6.42828846 11.1150577,5.52042308 C11.0954423,4.11890385 9.93878846,2.96225 8.53694231,2.94263462 Z" id="Path"></path>
                            </g>
                        </g>
                    </g>
                </g>
            </g>
        </g>
    </g>
</svg>