<?xml version="1.0" encoding="UTF-8"?>
<svg width="26px" height="18px" viewBox="0 0 26 18" version="1.1" xmlns="http://www.w3.org/2000/svg" xmlns:xlink="http://www.w3.org/1999/xlink">
    <title>Shape</title>
    <g id="Page-1" stroke="none" stroke-width="1" fill="none" fill-rule="evenodd">
        <g id="9" transform="translate(-385.000000, -733.000000)" fill="#FFFFFF">
            <g id="Menu" transform="translate(372.000000, 444.000000)">
                <g id="Group-5" transform="translate(0.000000, 218.050000)">
                    <g id="Group-14" transform="translate(0.000000, 54.993500)">
                        <path d="M29.042,21.8115 C29.036,20.8545 29.025,19.8975 29.007,18.9405 C28.991,18.4315 28.548,17.9835 28.034,17.9675 C24.02,17.8915 20.004,17.8915 15.99,17.9675 C15.481,17.9835 15.034,18.4295 15.018,18.9405 C14.941,22.9535 14.943,26.9695 15.018,30.9825 C15.033,31.4945 15.484,31.9475 16.004,31.9575 L24.011,31.9575 C24.011,31.9575 24.72,32.0575 24.934,32.5745 C25.182,33.1735 24.717,33.9285 24.011,33.9555 C21.334,33.9555 18.656,33.9725 15.979,33.9555 C14.432,33.9265 13.049,32.5895 13.019,30.9955 C12.994,26.9725 12.993,22.9505 13.019,18.9285 C13.048,17.3815 14.387,15.9995 15.978,15.9695 C20.001,15.9435 24.024,15.9435 28.046,15.9695 C29.586,15.9985 30.975,17.3125 31.006,18.9285 C31.009,19.4585 31.012,19.9885 31.014,20.5195 L37.65,18.0305 C37.75,17.9975 37.789,17.9635 38.055,17.9685 C38.266,17.9875 38.3,18.0085 38.389,18.0455 C38.748,18.1975 38.986,18.5715 39,18.9665 L39,30.9575 C38.984,31.4225 38.885,31.4565 38.772,31.5935 C38.507,31.9155 38.141,32.0585 37.65,31.8935 L33.653,30.3945 C33.419,30.2985 33.362,30.2395 33.262,30.1285 C32.684,29.4885 33.291,28.1655 34.354,28.5235 L37.001,29.5165 L37.001,20.4085 L31.022,22.6505 C31.029,25.4325 31.023,28.2145 31.006,30.9965 C30.976,32.5485 29.639,33.9455 28.011,33.9555 C28.011,33.9555 27.474,33.9215 27.199,33.5435 C26.8,32.9935 27.173,32.0775 27.852,31.9695 C28.042,31.9395 27.98,31.9685 28.136,31.9495 C28.61,31.8865 28.998,31.4535 29.007,30.9715 C29.026,27.9855 29.059,24.9985 29.043,22.0125 C29.036,21.9455 29.035,21.8785 29.042,21.8115 L29.042,21.8115 Z M21.013,23.9635 L21.013,20.9655 C21.018,20.7825 21.035,20.7325 21.069,20.6355 C21.206,20.2435 21.514,19.9795 22.012,19.9655 C22.031,19.9665 22.05,19.9665 22.068,19.9675 C22.25,19.9825 22.3,20.0025 22.395,20.0415 C22.761,20.1935 22.998,20.4865 23.012,20.9655 L23.012,23.9635 L26.009,23.9635 C26.028,23.9635 26.047,23.9645 26.065,23.9645 C26.596,24.0095 26.647,24.1595 26.791,24.3395 C27.233,24.8945 26.86,25.9155 26.065,25.9605 C26.047,25.9615 26.028,25.9615 26.009,25.9615 L23.012,25.9615 L23.012,28.9595 C22.987,29.8285 21.585,30.3755 21.112,29.3935 C21.05,29.2635 21.019,29.1885 21.013,28.9595 L21.013,25.9615 L18.015,25.9615 C17.148,25.9375 16.607,24.5315 17.582,24.0615 C17.711,23.9995 17.786,23.9695 18.015,23.9635 L21.013,23.9635 Z" id="Shape"></path>
                    </g>
                </g>
            </g>
        </g>
    </g>
</svg>