<?xml version="1.0" encoding="UTF-8"?>
<svg width="35px" height="33px" viewBox="0 0 35 33" version="1.1" xmlns="http://www.w3.org/2000/svg" xmlns:xlink="http://www.w3.org/1999/xlink">
    <title>noun_grocery_3478945</title>
    <g id="Page-1" stroke="none" stroke-width="1" fill="none" fill-rule="evenodd" >
        <g id="10" transform="translate(-125.000000, -708.000000)" fill="#baa08c" fill-rule="nonzero">
            <g id="noun_grocery_3478945" transform="translate(125.000000, 708.000000)">
                <path d="M5.96774194,24.9677419 C5.64706047,24.9677419 5.38709677,25.2277056 5.38709677,25.5483871 L5.38709677,29.0322581 C5.38709677,29.3529395 5.64706047,29.6129032 5.96774194,29.6129032 C6.2884234,29.6129032 6.5483871,29.3529395 6.5483871,29.0322581 L6.5483871,25.5483871 C6.5483871,25.2277056 6.2884234,24.9677419 5.96774194,24.9677419 Z" id="Path"></path>
                <path d="M8.29032258,24.9677419 C7.96964111,24.9677419 7.70967742,25.2277056 7.70967742,25.5483871 L7.70967742,29.0322581 C7.70967742,29.3529395 7.96964111,29.6129032 8.29032258,29.6129032 C8.61100405,29.6129032 8.87096774,29.3529395 8.87096774,29.0322581 L8.87096774,25.5483871 C8.87096774,25.2277056 8.61100405,24.9677419 8.29032258,24.9677419 Z" id="Path"></path>
                <path d="M10.6129032,19.1612903 C10.2922218,19.1612903 10.0322581,19.421254 10.0322581,19.7419355 L10.0322581,23.2258065 C10.0322581,23.5464879 10.2922218,23.8064516 10.6129032,23.8064516 C10.9335847,23.8064516 11.1935484,23.5464879 11.1935484,23.2258065 L11.1935484,19.7419355 C11.1935484,19.421254 10.9335847,19.1612903 10.6129032,19.1612903 Z" id="Path"></path>
                <path d="M10.6129032,24.9677419 C10.2922218,24.9677419 10.0322581,25.2277056 10.0322581,25.5483871 L10.0322581,29.0322581 C10.0322581,29.3529395 10.2922218,29.6129032 10.6129032,29.6129032 C10.9335847,29.6129032 11.1935484,29.3529395 11.1935484,29.0322581 L11.1935484,25.5483871 C11.1935484,25.2277056 10.9335847,24.9677419 10.6129032,24.9677419 Z" id="Path"></path>
                <path d="M12.9354839,19.1612903 C12.6148024,19.1612903 12.3548387,19.421254 12.3548387,19.7419355 L12.3548387,23.2258065 C12.3548387,23.5464879 12.6148024,23.8064516 12.9354839,23.8064516 C13.2561653,23.8064516 13.516129,23.5464879 13.516129,23.2258065 L13.516129,19.7419355 C13.516129,19.421254 13.2561653,19.1612903 12.9354839,19.1612903 Z" id="Path"></path>
                <path d="M12.9354839,24.9677419 C12.6148024,24.9677419 12.3548387,25.2277056 12.3548387,25.5483871 L12.3548387,29.0322581 C12.3548387,29.3529395 12.6148024,29.6129032 12.9354839,29.6129032 C13.2561653,29.6129032 13.516129,29.3529395 13.516129,29.0322581 L13.516129,25.5483871 C13.516129,25.2277056 13.2561653,24.9677419 12.9354839,24.9677419 Z" id="Path"></path>
                <path d="M22.2258065,19.1612903 C21.905125,19.1612903 21.6451613,19.421254 21.6451613,19.7419355 L21.6451613,23.2258065 C21.6451613,23.5464879 21.905125,23.8064516 22.2258065,23.8064516 C22.5464879,23.8064516 22.8064516,23.5464879 22.8064516,23.2258065 L22.8064516,19.7419355 C22.8064516,19.421254 22.5464879,19.1612903 22.2258065,19.1612903 Z" id="Path"></path>
                <path d="M22.2258065,24.9677419 C21.905125,24.9677419 21.6451613,25.2277056 21.6451613,25.5483871 L21.6451613,29.0322581 C21.6451613,29.3529395 21.905125,29.6129032 22.2258065,29.6129032 C22.5464879,29.6129032 22.8064516,29.3529395 22.8064516,29.0322581 L22.8064516,25.5483871 C22.8064516,25.2277056 22.5464879,24.9677419 22.2258065,24.9677419 Z" id="Path"></path>
                <path d="M24.5483871,19.1612903 C24.2277056,19.1612903 23.9677419,19.421254 23.9677419,19.7419355 L23.9677419,23.2258065 C23.9677419,23.5464879 24.2277056,23.8064516 24.5483871,23.8064516 C24.8690686,23.8064516 25.1290323,23.5464879 25.1290323,23.2258065 L25.1290323,19.7419355 C25.1290323,19.421254 24.8690686,19.1612903 24.5483871,19.1612903 Z" id="Path"></path>
                <path d="M24.5483871,24.9677419 C24.2277056,24.9677419 23.9677419,25.2277056 23.9677419,25.5483871 L23.9677419,29.0322581 C23.9677419,29.3529395 24.2277056,29.6129032 24.5483871,29.6129032 C24.8690686,29.6129032 25.1290323,29.3529395 25.1290323,29.0322581 L25.1290323,25.5483871 C25.1290323,25.2277056 24.8690686,24.9677419 24.5483871,24.9677419 Z" id="Path"></path>
                <path d="M26.8709677,24.9677419 C26.5502863,24.9677419 26.2903226,25.2277056 26.2903226,25.5483871 L26.2903226,29.0322581 C26.2903226,29.3529395 26.5502863,29.6129032 26.8709677,29.6129032 C27.1916492,29.6129032 27.4516129,29.3529395 27.4516129,29.0322581 L27.4516129,25.5483871 C27.4516129,25.2277056 27.1916492,24.9677419 26.8709677,24.9677419 Z" id="Path"></path>
                <path d="M29.1935484,24.9677419 C28.8728669,24.9677419 28.6129032,25.2277056 28.6129032,25.5483871 L28.6129032,29.0322581 C28.6129032,29.3529395 28.8728669,29.6129032 29.1935484,29.6129032 C29.5142299,29.6129032 29.7741935,29.3529395 29.7741935,29.0322581 L29.7741935,25.5483871 C29.7741935,25.2277056 29.5142299,24.9677419 29.1935484,24.9677419 Z" id="Path"></path>
                <path d="M17.5806452,19.1612903 C17.2599637,19.1612903 17,19.421254 17,19.7419355 L17,23.2258065 C17,23.5464879 17.2599637,23.8064516 17.5806452,23.8064516 C17.9013266,23.8064516 18.1612903,23.5464879 18.1612903,23.2258065 L18.1612903,19.7419355 C18.1612903,19.421254 17.9013266,19.1612903 17.5806452,19.1612903 Z" id="Path"></path>
                <path d="M17.5806452,24.9677419 C17.2599637,24.9677419 17,25.2277056 17,25.5483871 L17,29.0322581 C17,29.3529395 17.2599637,29.6129032 17.5806452,29.6129032 C17.9013266,29.6129032 18.1612903,29.3529395 18.1612903,29.0322581 L18.1612903,25.5483871 C18.1612903,25.2277056 17.9013266,24.9677419 17.5806452,24.9677419 Z" id="Path"></path>
                <path d="M15.2580645,19.1612903 C14.937383,19.1612903 14.6774194,19.421254 14.6774194,19.7419355 L14.6774194,23.2258065 C14.6774194,23.5464879 14.937383,23.8064516 15.2580645,23.8064516 C15.578746,23.8064516 15.8387097,23.5464879 15.8387097,23.2258065 L15.8387097,19.7419355 C15.8387097,19.421254 15.578746,19.1612903 15.2580645,19.1612903 Z" id="Path"></path>
                <path d="M15.2580645,24.9677419 C14.937383,24.9677419 14.6774194,25.2277056 14.6774194,25.5483871 L14.6774194,29.0322581 C14.6774194,29.3529395 14.937383,29.6129032 15.2580645,29.6129032 C15.578746,29.6129032 15.8387097,29.3529395 15.8387097,29.0322581 L15.8387097,25.5483871 C15.8387097,25.2277056 15.578746,24.9677419 15.2580645,24.9677419 Z" id="Path"></path>
                <path d="M19.9032258,19.1612903 C19.5825443,19.1612903 19.3225806,19.421254 19.3225806,19.7419355 L19.3225806,23.2258065 C19.3225806,23.5464879 19.5825443,23.8064516 19.9032258,23.8064516 C20.2239073,23.8064516 20.483871,23.5464879 20.483871,23.2258065 L20.483871,19.7419355 C20.483871,19.421254 20.2239073,19.1612903 19.9032258,19.1612903 Z" id="Path"></path>
                <path d="M19.9032258,24.9677419 C19.5825443,24.9677419 19.3225806,25.2277056 19.3225806,25.5483871 L19.3225806,29.0322581 C19.3225806,29.3529395 19.5825443,29.6129032 19.9032258,29.6129032 C20.2239073,29.6129032 20.483871,29.3529395 20.483871,29.0322581 L20.483871,25.5483871 C20.483871,25.2277056 20.2239073,24.9677419 19.9032258,24.9677419 Z" id="Path"></path>
                <path d="M33.6341774,24.3179274 L34.4972339,17.4135484 C34.7849812,17.3746025 35,17.1290805 35,16.8387097 L35,13.3548387 C35,13.0341572 34.7400363,12.7741935 34.4193548,12.7741935 L32.9487984,12.7741935 C33.8213486,11.8014491 34.0757358,10.4220244 33.6075605,9.20202949 C33.1393852,7.98203459 32.0274906,7.12692304 30.7281935,6.98762903 C31.2461731,5.55229402 30.7694802,3.94692082 29.5521035,3.02687542 C28.3347269,2.10683001 26.6601996,2.0863955 25.4207339,2.97645968 C24.5570968,1.84202419 23.168629,1.16129032 21.6451613,1.16129032 C19.8250565,1.16129032 18.211371,2.13590323 17.4505806,3.64028226 C16.3933873,3.3123117 15.2432441,3.50636394 14.3521812,4.16304443 C13.4611183,4.81972493 12.9352323,5.86084431 12.9354839,6.96774194 C12.9354839,7.00693548 12.9367903,7.04598387 12.9380968,7.08510484 C12.5352227,7.16671871 12.1421324,7.29079872 11.7654113,7.45526613 C11.4955703,6.93985382 11.1417608,6.4729892 10.7185081,6.07383871 C10.0005274,5.39142105 9.55611634,4.4705474 9.46859677,3.48387097 L10.0322581,3.48387097 C10.3529395,3.48387097 10.6129032,3.22390727 10.6129032,2.90322581 L10.6129032,1.74193548 C10.6118233,0.780338776 9.83256445,0.00107997486 8.87096774,0 L5.38709677,0 C4.42550007,0.00107997486 3.64624127,0.780338776 3.64516129,1.74193548 L3.64516129,2.90322581 C3.64516129,3.22390727 3.90512498,3.48387097 4.22580645,3.48387097 L4.78946774,3.48387097 C4.7019915,4.47058029 4.25757483,5.39149134 3.53955645,6.07391129 C2.49027599,7.05729482 1.89745695,8.43291372 1.90322581,9.87096774 C1.9029301,10.2997584 2.06145691,10.7134639 2.34821774,11.0322581 C2.06145691,11.3510522 1.9029301,11.7647578 1.90322581,12.1935484 L1.90322581,12.7741935 L0.741935484,12.7741935 C0.421254016,12.7741935 0.161290323,13.0341572 0.161290323,13.3548387 L0.161290323,16.8387097 C0.161570381,17.1290805 0.37630913,17.3746025 0.664056452,17.4135484 L1.52958065,24.3377419 L0.374241935,26.4556452 C0.0593775556,27.0284363 0.0923474281,27.7294201 0.45958387,28.2701295 C0.826820311,28.8108389 1.46627397,29.0999139 2.11479839,29.0183952 L2.30735484,30.5592823 C2.44678226,31.6749919 3.43816129,32.516129 4.61353226,32.516129 L30.5477581,32.516129 C31.7230565,32.516129 32.7145081,31.6749919 32.8539355,30.5595726 L33.0495403,28.9946613 C33.4093682,29.0396436 33.7742081,28.9697595 34.0919435,28.7949919 C34.4975231,28.5737665 34.7986095,28.2004858 34.928967,27.7572676 C35.0593244,27.3140494 35.0082748,26.8372 34.7870484,26.431621 L33.6341774,24.3179274 Z M33.8387097,13.9354839 L33.8387097,16.2580645 L29.2378952,16.2580645 L27.971,13.9354839 L33.8387097,13.9354839 Z M33.3260726,17.4193548 L32.6819919,22.5725806 L29.8713065,17.4193548 L33.3260726,17.4193548 Z M16.4193548,4.64516129 C16.7937057,4.64412467 17.1626308,4.73464912 17.4939839,4.90884677 C17.64469,4.98782099 17.8224514,4.99672039 17.9802917,4.93319316 C18.138132,4.86966594 18.2601664,4.74010537 18.3141452,4.57875 C18.7655242,3.22925806 20.1043468,2.32258065 21.6451613,2.32258065 C22.9733871,2.32258065 24.2054435,3.03227419 24.784129,4.13056452 C24.8725192,4.29832662 25.0372573,4.41235937 25.2253992,4.43601447 C25.4135411,4.45966957 25.6013803,4.3899664 25.7285484,4.24930645 C26.3727523,3.53656733 27.3892909,3.29401906 28.2858971,3.63911757 C29.1825034,3.98421608 29.7740968,4.84572492 29.7741935,5.80645161 C29.7760705,6.33383235 29.5963875,6.84579201 29.2653306,7.25632258 C29.1112939,7.44876796 29.0955552,7.71749729 29.226074,7.92660826 C29.3565928,8.13571923 29.6049187,8.23962988 29.8454677,8.18579032 C30.7151598,7.98991333 31.6202233,8.30911004 32.1746205,9.00723315 C32.7290178,9.70535626 32.8349063,10.659198 32.4471214,11.4619153 C32.0593365,12.2646326 31.2463161,12.7745584 30.3548387,12.7741937 L28.9269597,12.7741937 C28.3504737,10.9420374 26.9054224,9.51340574 25.0667982,8.95789392 C23.2281741,8.4023821 21.2338125,8.79184844 19.7392661,9.99827419 C19.6090565,10.1036129 19.483879,10.21425 19.3637339,10.3301855 C18.412534,8.27945655 16.3573649,6.96743017 14.0967742,6.96774194 C14.0982142,5.68561299 15.1372259,4.64660126 16.4193548,4.64516129 Z M27.6935242,12.7741935 L19.0806694,12.7741935 C19.3780213,12.0427552 19.8557681,11.3985349 20.4693548,10.9016129 C22.1718803,9.52761752 24.6023133,9.52761752 26.3048387,10.9016129 C26.9184255,11.3985349 27.3961722,12.0427552 27.6935242,12.7741935 L27.6935242,12.7741935 Z M12.1855081,8.53983871 C13.7832971,7.81945857 15.6504576,8.05912236 17.0145161,9.15967742 C17.7183757,9.72947842 18.2414608,10.4915628 18.520129,11.3532097 C18.2325217,11.7942164 18.0061538,12.272248 17.8472339,12.7741935 L12.3548387,12.7741935 L12.3548387,12.1935484 C12.3551344,11.7647578 12.1966076,11.3510522 11.9098468,11.0322581 C12.1966076,10.7134639 12.3551344,10.2997584 12.3548387,9.87096774 C12.3553129,9.42185752 12.2984087,8.97452671 12.1855081,8.53983871 Z M26.0969677,13.9354839 L24.9925081,14.5379032 C24.7109917,14.6914711 24.6072668,15.044175 24.7608306,15.3256935 L25.2694032,16.2580645 L9.90509677,16.2580645 L10.4003871,15.3500806 C10.553951,15.0685621 10.450226,14.7158582 10.1687097,14.5622903 L9.0196129,13.9354839 L26.0969677,13.9354839 Z M4.80645161,1.74193548 C4.8068116,1.42140325 5.06656454,1.16165031 5.38709677,1.16129032 L8.87096774,1.16129032 C9.19149998,1.16165031 9.45125291,1.42140325 9.4516129,1.74193548 L9.4516129,2.32258065 L4.80645161,2.32258065 L4.80645161,1.74193548 Z M9.03275,5.80645161 L5.22531452,5.80645161 C5.6468727,5.10007174 5.89644261,4.30447129 5.95387903,3.48387097 L8.30418548,3.48387097 C8.36162191,4.30447129 8.61119182,5.10007174 9.03275,5.80645161 L9.03275,5.80645161 Z M4.2871371,6.96774194 L9.97092742,6.96774194 C10.7562084,7.72902811 11.1976433,8.77725564 11.1935766,9.87096774 C11.1931884,10.1915 10.9334355,10.4512529 10.6129032,10.4516129 L3.64516129,10.4516129 C3.32462905,10.4512529 3.06487612,10.1915 3.06448778,9.87096774 C3.06041285,8.77725396 3.501849,7.72902327 4.2871371,6.96774194 L4.2871371,6.96774194 Z M3.06451613,12.1935484 C3.06487612,11.8730162 3.32462905,11.6132632 3.64516129,11.6129032 L10.6129032,11.6129032 C10.9334355,11.6132632 11.1931884,11.8730162 11.1935484,12.1935484 L11.1935484,12.7741935 L3.06451613,12.7741935 L3.06451613,12.1935484 Z M1.32258065,16.2580645 L1.32258065,13.9354839 L7.20357258,13.9354839 L5.93675,16.2580645 L1.32258065,16.2580645 Z M5.30326613,17.4193548 L2.48176613,22.5921048 L1.83514516,17.4193548 L5.30326613,17.4193548 Z M2.41317742,27.5681613 C2.31120485,27.7549927 2.11527564,27.8711526 1.90242742,27.870968 C1.80556111,27.870968 1.71024934,27.8466177 1.6253871,27.7999113 C1.34418103,27.6460972 1.24051513,27.2937045 1.3936371,27.012121 L8.08339516,14.7475887 L9.1028629,15.3037016 L2.41317742,27.5681613 Z M31.7015726,30.4155726 C31.6346532,30.9510726 31.1386371,31.3548387 30.5475403,31.3548387 L4.61353226,31.3548387 C4.02265323,31.3548387 3.5266371,30.9510726 3.4595,30.4155726 L3.2123629,28.4383306 C3.29707361,28.3420636 3.37089965,28.2367404 3.4325,28.1242742 L7.70967742,20.2830968 L7.70967742,23.2258065 C7.70967742,23.5464879 7.96964111,23.8064516 8.29032258,23.8064516 C8.61100405,23.8064516 8.87096774,23.5464879 8.87096774,23.2258065 L8.87096774,19.7419355 C8.87083741,19.433251 8.62900807,19.1787257 8.32073387,19.1628145 L9.27168548,17.4193548 L25.9028145,17.4193548 L26.853621,19.1621613 C26.5399721,19.171307 26.2904248,19.4281533 26.2903226,19.7419355 L26.2903226,23.2258065 C26.2903226,23.5464879 26.5502863,23.8064516 26.8709677,23.8064516 C27.1916492,23.8064516 27.4516129,23.5464879 27.4516129,23.2258065 L27.4516129,20.2588548 L31.7285726,28.0998871 C31.7908206,28.2135253 31.8655575,28.3198609 31.9513952,28.4169194 L31.7015726,30.4155726 Z M33.8149032,27.4296048 C33.7486944,27.6549982 33.5531971,27.8182901 33.3196157,27.8433008 C33.0860343,27.8683115 32.8603964,27.7501126 32.7479677,27.5438468 L26.0580645,15.2793871 L27.0776048,14.7232742 L33.7675806,26.9877339 C33.8416923,27.1228065 33.8587307,27.2819014 33.8149032,27.4296048 Z" id="Shape"></path>
            </g>
        </g>
    </g>
</svg>