<?xml version="1.0" encoding="UTF-8"?>
<svg width="16px" height="16px" viewBox="0 0 16 16" version="1.1" xmlns="http://www.w3.org/2000/svg" xmlns:xlink="http://www.w3.org/1999/xlink">
    <title>noun_size_2804961</title>
    <g id="Page-1" stroke="none" stroke-width="1" fill="none" fill-rule="evenodd">
        <g id="Home-Buying" transform="translate(-3224.000000, -912.000000)" fill="#FFFFFF" fill-rule="nonzero">
            <g id="Group-15" transform="translate(3167.000000, 175.000000)">
                <g id="Group-14" transform="translate(1.000000, 0.000000)">
                    <g id="Group-13" transform="translate(27.000000, 512.000000)">
                        <g id="Group-7" transform="translate(17.000000, 89.000000)">
                            <g id="Group-10" transform="translate(0.000000, 125.000000)">
                                <g id="noun_size_2804961" transform="translate(12.000000, 11.000000)">
                                    <path d="M15.2729305,-9.78883987e-09 L9.81770667,-9.78883987e-09 C9.43911351,-9.78883987e-09 9.13220312,0.306910392 9.13220312,0.685503546 C9.13220312,1.0640967 9.43911351,1.37100709 9.81770667,1.37100709 L13.6201237,1.37100709 L9.34659177,5.64453447 C9.75077897,5.87499491 10.0842394,6.2116095 10.3108845,6.61794837 L14.5874292,2.34137532 L14.5874292,6.14094752 C14.5874292,6.51954067 14.8943396,6.82645106 15.2729328,6.82645106 C15.6515259,6.82645106 15.9584363,6.51954067 15.9584363,6.14094752 L15.9584363,0.685501277 C15.9584363,0.503685205 15.8862524,0.329307443 15.7576886,0.20074449 C15.6291248,0.0721815365 15.4547466,-9.78883987e-09 15.2729305,-9.78883987e-09 L15.2729305,-9.78883987e-09 Z" id="Path"></path>
                                    <path d="M6.14072511,14.5876516 L2.34118128,14.5876516 L6.65030809,10.278501 C6.44914318,10.1638136 6.26333387,10.0240792 6.09732652,9.8626417 C5.93316285,9.69957421 5.79174388,9.51510922 5.67689418,9.31423546 L1.37100255,13.6201237 L1.37100255,9.81770667 C1.37100256,9.57279983 1.24034633,9.34649658 1.02825079,9.22404316 C0.816155249,9.10158974 0.554842765,9.10158974 0.342747226,9.22404316 C0.130651686,9.34649658 -4.54841591e-06,9.57279983 -4.54841591e-06,9.81770667 L-4.54841591e-06,15.2731529 C-4.54841591e-06,15.454969 0.0721781768,15.629347 0.200741556,15.7579104 C0.329304934,15.8864737 0.503682936,15.9586565 0.685499007,15.9586565 L6.14072511,15.9586565 C6.51931826,15.9586565 6.82622865,15.6517461 6.82622865,15.2731529 C6.82622865,14.8945598 6.51931826,14.5876494 6.14072511,14.5876494 L6.14072511,14.5876516 Z" id="Path"></path>
                                    <path d="M6.14072511,-4.53900709e-06 L0.685501277,-4.53900709e-06 C0.503685205,-4.53900709e-06 0.329307204,0.0721827158 0.200743825,0.200746095 C0.0721804463,0.329309473 -2.27891236e-06,0.503687475 -2.27891236e-06,0.685503546 L-2.27891236e-06,6.14094979 C-2.27891236e-06,6.51954294 0.306908122,6.82645333 0.685501277,6.82645333 C1.06409443,6.82645333 1.37100482,6.51954294 1.37100482,6.14094979 L1.37100482,2.33945078 L1.37195348,2.34039943 L5.65862241,6.6270695 C5.88684594,6.22227325 6.21789876,5.88490804 6.61831262,5.64908028 L2.34023262,1.37100255 L6.14072511,1.37100255 C6.51931825,1.37100254 6.82622862,1.06409215 6.82622862,0.685499007 C6.82622862,0.306905864 6.51931825,-4.53900709e-06 6.14072511,-4.53900709e-06 L6.14072511,-4.53900709e-06 Z" id="Path"></path>
                                    <path d="M15.2729305,9.13220538 C15.0911144,9.13220538 14.9167364,9.20438811 14.788173,9.33295148 C14.6596097,9.46151486 14.5873968,9.63589286 14.587427,9.81770894 L14.587427,13.6182014 L10.2925844,9.32339291 C10.1771969,9.52375608 10.034118,9.7068377 9.86757787,9.86722496 C9.70289056,10.0314657 9.51691419,10.172871 9.31462468,10.2876573 L13.6145986,14.5876596 L9.81770667,14.5876596 C9.43911351,14.5876596 9.13220312,14.89457 9.13220312,15.2731631 C9.13220312,15.6517563 9.43911351,15.9586667 9.81770667,15.9586667 L15.2729305,15.9586667 C15.4547466,15.9586667 15.6291246,15.886484 15.7576879,15.7579206 C15.8862513,15.6293572 15.9584341,15.4549792 15.9584341,15.2731631 L15.9584341,9.81770667 C15.9584341,9.63589099 15.8862505,9.46151357 15.7576871,9.33295068 C15.6291238,9.20438779 15.4547462,9.13220538 15.2729305,9.13220538 L15.2729305,9.13220538 Z" id="Path"></path>
                                    <path d="M8.6016783,7.35828652 C8.46266248,7.21370035 8.27595642,7.12439547 8.07614411,7.10691404 C8.04633402,7.09914635 8.01549596,7.09606909 7.98473872,7.09779291 C7.95097208,7.09629467 7.91715775,7.09936276 7.8842122,7.10691404 C7.68636028,7.12885383 7.50303224,7.22132978 7.36779915,7.36740766 C7.23933583,7.49859854 7.15883658,7.66925659 7.13929872,7.85182752 C7.13152156,7.88629753 7.12844381,7.9216613 7.13014922,7.9569566 C7.12945478,8.01082776 7.13559356,8.0645696 7.14841872,8.11689645 C7.1802717,8.28918083 7.26492263,8.44729234 7.3906417,8.56932199 C7.50958525,8.68587517 7.66087329,8.76390556 7.82479773,8.79324823 C7.87712056,8.80609645 7.93086376,8.81224497 7.98473645,8.8115461 C8.03381426,8.8117317 8.08279342,8.80713543 8.13097986,8.79782241 C8.48753269,8.7342958 8.76664984,8.45517865 8.83017645,8.09862582 C8.83949159,8.05198264 8.84408931,8.00452046 8.84390014,7.9569566 C8.84562912,7.92619757 8.84254207,7.89535726 8.83475064,7.86555121 C8.81674498,7.67494823 8.73457093,7.49610251 8.6016783,7.35828652 L8.6016783,7.35828652 Z" id="Path"></path>
                                </g>
                            </g>
                        </g>
                    </g>
                </g>
            </g>
        </g>
    </g>
</svg>