<?xml version="1.0" encoding="UTF-8"?>
<svg width="44px" height="34px" viewBox="0 0 44 34" version="1.1" xmlns="http://www.w3.org/2000/svg" xmlns:xlink="http://www.w3.org/1999/xlink">
    <title>noun_Park_1218614</title>
    <g id="Page-1" stroke="none" stroke-width="1" fill="none" fill-rule="evenodd" >
        <g id="10" transform="translate(-316.000000, -705.000000)" fill="#d9999d" fill-rule="nonzero">
            <g id="noun_Park_1218614" transform="translate(316.000000, 705.000000)">
                <path d="M42.8541667,31.9458333 L37.1708333,31.9458333 L35.9333333,29.6083333 L39.0041667,29.6083333 C39.2791667,29.6083333 39.4625,29.425 39.4625,29.15 L39.4625,28.325 C39.4625,28.05 39.2791667,27.8666667 39.0041667,27.8666667 L35.0166667,27.8666667 L33.6875,25.3 L35.5208333,25.3 C35.7958333,25.3 35.9791667,25.1166667 35.9791667,24.8416667 L35.9791667,24.0166667 C35.9791667,23.7416667 35.7958333,23.5583333 35.5208333,23.5583333 L22.1833333,23.5583333 C21.9083333,23.5583333 21.725,23.7416667 21.725,24.0166667 L21.725,24.8416667 C21.725,25.1166667 21.9083333,25.3 22.1833333,25.3 L24.0166667,25.3 L22.6875,27.8666667 L18.7,27.8666667 C18.425,27.8666667 18.2416667,28.05 18.2416667,28.325 L18.2416667,29.15 C18.2416667,29.425 18.425,29.6083333 18.7,29.6083333 L21.7708333,29.6083333 L20.5333333,31.9458333 L14.4833333,31.9458333 C14.3,30.25 13.1083333,26.8583333 12.8333333,23.9708333 C12.5583333,21.45 12.7875,19.8458333 12.9708333,19.0208333 C13.475,18.1958333 14.8041667,16.8208333 15.6291667,16.3625 C16.225,16.8208333 17.05,17.0958333 17.875,16.9125 C19.0666667,16.6833333 20.0291667,15.7208333 20.1666667,14.4833333 C20.2583333,13.75 20.075,13.0166667 19.6625,12.4666667 C20.8541667,11.7333333 21.6333333,10.4041667 21.6333333,8.89166667 C21.6333333,7.15 20.5791667,5.6375 19.0208333,4.99583333 C19.0208333,4.85833333 19.0666667,4.72083333 19.0666667,4.5375 C19.0666667,2.75 17.6,1.28333333 15.8125,1.28333333 C15.2166667,1.28333333 14.7125,1.42083333 14.2083333,1.69583333 C13.4291667,0.825 12.2833333,0.229166667 11,0.229166667 C9.44166667,0.229166667 8.1125,1.05416667 7.37916667,2.29166667 C6.69166667,1.83333333 5.82083333,1.65 4.90416667,1.83333333 C3.66666667,2.0625 2.70416667,3.025 2.38333333,4.2625 C2.2,4.99583333 2.29166667,5.68333333 2.52083333,6.27916667 C1.05416667,6.96666667 0.0458333333,8.43333333 0.0458333333,10.1291667 C0.0458333333,11.55 0.779166667,12.8333333 1.87916667,13.6125 C1.74166667,14.1166667 1.74166667,14.6666667 1.925,15.2625 C2.38333333,16.7291667 3.7125,17.7375 5.225,17.6458333 C5.82083333,17.6 6.37083333,17.4166667 6.875,17.0958333 C7.60833333,17.7375 8.47916667,18.5625 8.9375,19.1583333 C9.30416667,20.075 9.94583333,22.55 9.2125,26.125 C8.61666667,28.9208333 8.1125,30.8916667 8.02083333,31.9916667 L3.48333333,31.9916667 C3.07083333,31.9916667 2.65833333,32.2666667 2.56666667,32.725 C2.475,33.275 2.8875,33.7333333 3.4375,33.7333333 L42.7166667,33.7333333 C43.2208333,33.7333333 43.6791667,33.275 43.5875,32.725 C43.6791667,32.2666667 43.2666667,31.9458333 42.8541667,31.9458333 Z M11.7333333,15.9041667 C12.7416667,15.9041667 13.6583333,15.6291667 14.4375,15.1708333 C14.5291667,15.3083333 14.6666667,15.4458333 14.8041667,15.5375 C14.025,16.3166667 12.7416667,17.4625 11.8708333,17.9208333 C11.825,17.9208333 11.6416667,17.875 11.6416667,17.875 C11.4583333,17.325 11.3666667,16.5916667 11.275,15.8583333 C11.4125,15.9041667 11.5958333,15.9041667 11.7333333,15.9041667 Z M7.8375,16.2708333 C8.06666667,15.9958333 8.20416667,15.675 8.34166667,15.3541667 C8.57083333,15.3083333 8.75416667,15.2625 8.98333333,15.1708333 C9.35,15.4 9.71666667,15.5375 10.0833333,15.675 C10.2666667,16.6375 10.45,17.7375 10.3125,18.0583333 C10.175,18.1041667 10.0375,18.15 9.9,18.1958333 C9.30416667,17.7375 8.3875,16.9583333 7.8375,16.2708333 Z M26.0791667,25.3 L31.7625,25.3 L33.0916667,27.8666667 L24.75,27.8666667 L26.0791667,25.3 Z M23.8333333,29.6083333 L34.0083333,29.6083333 L35.2458333,31.9458333 L22.6416667,31.9458333 L23.8333333,29.6083333 Z" id="Shape"></path>
            </g>
        </g>
    </g>
</svg>