<?xml version="1.0" encoding="UTF-8"?>
<svg width="23px" height="25px" viewBox="0 0 23 25" version="1.1" xmlns="http://www.w3.org/2000/svg" xmlns:xlink="http://www.w3.org/1999/xlink">
    <title>noun_Phone_2395029_ffffff</title>
    <g id="Page-1" stroke="none" stroke-width="1" fill="none" fill-rule="evenodd">
        <g id="9" transform="translate(-385.000000, -622.000000)" fill="#FFFFFF">
            <g id="Menu" transform="translate(372.000000, 444.000000)">
                <g id="Group-3" transform="translate(0.000000, 164.762500)">
                    <g id="noun_Phone_2395029_ffffff" transform="translate(13.475000, 14.087500)">
                        <path d="M20.6573392,14.4600574 C19.7933242,13.5960423 18.6414272,13.1201811 17.4138951,13.1201811 C16.1696715,13.1201811 14.9975108,13.6071905 14.1131703,14.4914694 C13.995098,14.6096032 13.8755476,14.7441205 13.7477439,14.9027204 C13.6928652,14.9707182 13.6116867,15.0122929 13.5244106,15.0169739 C13.4366418,15.0217165 13.3519525,14.989011 13.2901756,14.9271725 L7.11395824,8.75089358 C7.05150377,8.68837751 7.01885992,8.60208687 7.02434162,8.51394846 C7.02982332,8.42581006 7.07293785,8.34420042 7.14272179,8.2899993 C7.27834777,8.18461508 7.41144846,8.06617332 7.54966131,7.92796047 C9.36250391,6.11505628 9.37765559,3.18049693 7.58341383,1.38625517 C6.72013785,0.52297919 5.56953436,0.047549162 4.34354204,0.047549162 C3.09938003,0.047549162 1.92678813,0.534989665 1.04177011,1.42006927 C-0.519037291,2.98081508 0.0570343575,5.48983408 0.815110894,7.31973771 C2.10903939,10.4430771 4.93833771,14.1004823 8.38349623,17.1033473 C11.9555962,20.2167704 15.4542784,22.002574 17.9821446,22.002574 C17.9824525,22.002574 17.9823909,22.002574 17.9826989,22.002574 C19.0710943,22.002574 19.959623,21.665788 20.6235251,21.0018859 C21.5025687,20.1227807 21.9900708,18.958011 21.9959766,17.7222872 C22.0018349,16.4876719 21.5264665,15.3291846 20.6573392,14.4600574 Z" id="Path"></path>
                    </g>
                </g>
            </g>
        </g>
    </g>
</svg>