<?xml version="1.0" encoding="UTF-8"?>
<svg width="20px" height="13px" viewBox="0 0 20 13" version="1.1" xmlns="http://www.w3.org/2000/svg" xmlns:xlink="http://www.w3.org/1999/xlink">
    <title>Group</title>
    <g id="Page-1" stroke="none" stroke-width="1" fill="none" fill-rule="evenodd">
        <g id="Home-Buying" transform="translate(-3223.000000, -791.000000)" fill="#FFFFFF">
            <g id="Group-15" transform="translate(3167.000000, 175.000000)">
                <g id="Group-14" transform="translate(1.000000, 0.000000)">
                    <g id="Group-13" transform="translate(27.000000, 512.000000)">
                        <g id="Group-7" transform="translate(17.000000, 89.000000)">
                            <g id="Group" transform="translate(11.000000, 15.000000)">
                                <path d="M17.3428571,5.97048643 L19.3186813,5.97048643 L19.3186813,4.19405263 C19.3186813,3.82515166 19.0175824,3.52432171 18.6483516,3.52432171 L7.51868132,3.52432171 C7.55386813,3.5967844 7.58683516,3.66924709 7.6198022,3.74390562 C7.84397802,4.27529867 7.95824176,4.83962931 7.95824176,5.42152667 C7.95824176,5.60595519 7.94725275,5.79042763 7.92307692,5.97048643 L17.3428571,5.97048643 L17.3428571,5.97048643 Z" id="Shape"></path>
                                <path d="M3.64615385,1.88183408 C3.57142857,1.88183408 3.4989011,1.88402992 3.42637363,1.8884216 L3.42637363,5.9682906 L5.86813187,5.9682906 L7.14505495,5.9682906 C7.17364835,5.78823179 7.18681319,5.60597715 7.18681319,5.41933083 C7.18681319,4.721054 6.98461538,4.0711076 6.63516484,3.52432171 C6.00879121,2.53619413 4.9032967,1.88183408 3.64615385,1.88183408 L3.64615385,1.88183408 Z" id="Shape"></path>
                                <path d="M0.659340659,12.1539693 L1.9978022,12.1539693 C2.36263736,12.1539693 2.65714286,11.8597268 2.65714286,11.4952175 L2.65714286,9.39379955 L17.3428571,9.39379955 L17.3428571,11.4952175 C17.3428571,11.8597268 17.6373626,12.1539693 18.0021978,12.1539693 L19.3406593,12.1539693 C19.7054945,12.1539693 20,11.8597268 20,11.4952175 L20,7.39778183 C20,7.03325059 19.7054945,6.73903011 19.3406593,6.73903011 L17.3428571,6.73903011 L2.65714286,6.73903011 L2.65714286,2.02236778 L2.65714286,0.669730917 C2.65714286,0.305221631 2.36263736,0.0109791954 1.9978022,0.0109791954 L0.659340659,0.0109791954 C0.294505495,0.0109791954 0,0.305221631 0,0.669730917 L0,3.12248316 L0,3.9678812 L0,6.87297629 L0,7.71837433 L0,11.4952175 C0,11.857531 0.294505495,12.1539693 0.659340659,12.1539693 L0.659340659,12.1539693 Z" id="Shape"></path>
                            </g>
                        </g>
                    </g>
                </g>
            </g>
        </g>
    </g>
</svg>