<?xml version="1.0" encoding="UTF-8"?>
<svg width="39px" height="39px" viewBox="0 0 39 39" version="1.1" xmlns="http://www.w3.org/2000/svg" xmlns:xlink="http://www.w3.org/1999/xlink">
    <title>Shape</title>
    <g id="Page-1" stroke="none" stroke-width="1" fill="none" fill-rule="evenodd">
        <g id="10" transform="translate(-316.000000, -510.000000)" fill="#eedad1" fill-rule="nonzero">
            <g id="noun_School_975011" transform="translate(316.000000, 510.000000)">
                <path d="M38.59596,18.46065 L20.05848,5.25369 C20.04054,5.24121 20.02221,5.22951 20.00349,5.2182 L20.00349,3.5763 C21.59235,2.70972 23.18043,4.61565 24.76929,3.63285 C24.76929,2.51901 24.76929,1.40439 24.76929,0.29016 C23.18082,1.27296 21.59235,-0.63258 20.00349,0.23361 L20.00349,0.18135 C20.00349,0.08112 19.92276,0 19.82253,0 L19.17786,0 C19.07763,0 18.99651,0.08112 18.99651,0.18135 L18.99651,5.2182 C18.97818,5.22951 18.95985,5.24121 18.94191,5.25369 L0.40404,18.46065 C0.06318,18.70323 -0.08151,19.13847 0.04602,19.53744 C0.17355,19.93563 0.54366,20.20629 0.96252,20.20629 L2.78265,20.20629 L2.78265,35.99232 L2.67501,35.99232 C2.23548,35.99232 1.87941,36.34878 1.87941,36.78831 L1.87941,37.79646 C1.87941,38.23599 2.23548,38.59206 2.67501,38.59206 L10.98162,38.59206 L10.98162,37.64982 C10.98162,37.1358 11.40009,36.71733 11.91411,36.71733 L12.20037,36.71733 L12.20037,35.66979 C12.20037,35.15616 12.61845,34.73769 13.13286,34.73769 L13.65585,34.73769 L13.65585,33.79896 C13.65585,33.31965 14.04546,32.92965 14.52477,32.92965 L15.31608,32.92965 L15.31608,24.47679 C15.31608,24.03375 15.67488,23.67495 16.11792,23.67495 L22.88208,23.67495 C23.32512,23.67495 23.68431,24.03375 23.68431,24.47679 L23.68431,32.93004 L24.47562,32.93004 C24.95493,32.93004 25.34415,33.32004 25.34415,33.79935 L25.34415,34.73808 L25.86753,34.73808 C26.38155,34.73808 26.80002,35.15616 26.80002,35.67018 L26.80002,36.71772 L27.08628,36.71772 C27.6003,36.71772 28.01877,37.1358 28.01877,37.65021 L28.01877,38.59245 L36.32538,38.59245 C36.76491,38.59245 37.12098,38.23638 37.12098,37.79685 L37.12098,36.7887 C37.12098,36.34917 36.76491,35.99271 36.32538,35.99271 L36.21852,35.99271 L36.21852,20.20629 L38.03865,20.20629 C38.45673,20.20629 38.82723,19.93602 38.95515,19.53744 C39.08151,19.13847 38.93682,18.70323 38.59596,18.46065 Z M8.58858,30.79947 C8.58858,31.09002 8.35302,31.32597 8.06247,31.32597 L6.29811,31.32597 C6.00756,31.32597 5.772,31.09041 5.772,30.79947 L5.772,29.0823 C5.772,28.79175 6.00756,28.55619 6.29811,28.55619 L8.06247,28.55619 C8.35302,28.55619 8.58858,28.79175 8.58858,29.0823 L8.58858,30.79947 Z M8.58858,26.26416 C8.58858,26.55432 8.35302,26.79027 8.06247,26.79027 L6.29811,26.79027 C6.00756,26.79027 5.772,26.55471 5.772,26.26416 L5.772,24.54738 C5.772,24.25683 6.00756,24.02088 6.29811,24.02088 L8.06247,24.02088 C8.35302,24.02088 8.58858,24.25644 8.58858,24.54738 L8.58858,26.26416 Z M13.36296,30.79947 C13.36296,31.09002 13.1274,31.32597 12.83685,31.32597 L11.0721,31.32597 C10.78155,31.32597 10.54599,31.09041 10.54599,30.79947 L10.54599,29.0823 C10.54599,28.79175 10.78155,28.55619 11.0721,28.55619 L12.83685,28.55619 C13.1274,28.55619 13.36296,28.79175 13.36296,29.0823 L13.36296,30.79947 Z M13.36296,26.26416 C13.36296,26.55432 13.1274,26.79027 12.83685,26.79027 L11.0721,26.79027 C10.78155,26.79027 10.54599,26.55471 10.54599,26.26416 L10.54599,24.54738 C10.54599,24.25683 10.78155,24.02088 11.0721,24.02088 L12.83685,24.02088 C13.1274,24.02088 13.36296,24.25644 13.36296,24.54738 L13.36296,26.26416 Z M19.5,20.03742 C17.01258,20.03742 14.99589,18.02073 14.99589,15.53331 C14.99589,13.04589 17.01258,11.02881 19.5,11.02881 C21.98781,11.02881 24.00411,13.0455 24.00411,15.53292 C24.00411,18.02034 21.98781,20.03742 19.5,20.03742 Z M28.45362,30.79947 C28.45362,31.09002 28.21806,31.32597 27.92751,31.32597 L26.16276,31.32597 C25.8726,31.32597 25.63704,31.09041 25.63704,30.79947 L25.63704,29.0823 C25.63704,28.79175 25.8726,28.55619 26.16276,28.55619 L27.92751,28.55619 C28.21806,28.55619 28.45362,28.79175 28.45362,29.0823 L28.45362,30.79947 Z M28.45362,26.26416 C28.45362,26.55432 28.21806,26.79027 27.92751,26.79027 L26.16276,26.79027 C25.8726,26.79027 25.63704,26.55471 25.63704,26.26416 L25.63704,24.54738 C25.63704,24.25683 25.8726,24.02088 26.16276,24.02088 L27.92751,24.02088 C28.21806,24.02088 28.45362,24.25644 28.45362,24.54738 L28.45362,26.26416 Z M33.22761,30.79947 C33.22761,31.09002 32.99205,31.32597 32.7015,31.32597 L30.93714,31.32597 C30.64659,31.32597 30.41103,31.09041 30.41103,30.79947 L30.41103,29.0823 C30.41103,28.79175 30.64659,28.55619 30.93714,28.55619 L32.7015,28.55619 C32.99205,28.55619 33.22761,28.79175 33.22761,29.0823 L33.22761,30.79947 Z M33.22761,26.26416 C33.22761,26.55432 32.99205,26.79027 32.7015,26.79027 L30.93714,26.79027 C30.64659,26.79027 30.41103,26.55471 30.41103,26.26416 L30.41103,24.54738 C30.41103,24.25683 30.64659,24.02088 30.93714,24.02088 L32.7015,24.02088 C32.99205,24.02088 33.22761,24.25644 33.22761,24.54738 L33.22761,26.26416 Z M22.47063,15.23067 C22.76859,15.23067 23.01,15.47247 23.01,15.77004 C23.01,16.068 22.76859,16.3098 22.47063,16.3098 L19.4493,16.3098 C19.43058,16.3098 19.41225,16.30863 19.39392,16.30668 C19.1217,16.27938 18.90954,16.04928 18.90954,15.77004 L18.90954,12.74871 C18.90954,12.45075 19.15095,12.20934 19.44891,12.20934 C19.74687,12.20934 19.98867,12.45075 19.98867,12.74871 L19.98867,15.23067 L22.47063,15.23067 Z M14.52477,33.57159 L24.47562,33.57159 C24.60081,33.57159 24.7026,33.67338 24.7026,33.79896 L24.7026,34.73769 L14.2974,34.73769 L14.2974,33.79896 C14.2974,33.67338 14.39919,33.57159 14.52477,33.57159 Z M13.13286,35.37924 L25.86714,35.37924 C26.02782,35.37924 26.15808,35.5095 26.15808,35.66979 L26.15808,36.71733 L12.84192,36.71733 L12.84192,35.66979 C12.84192,35.5095 12.97218,35.37924 13.13286,35.37924 Z M27.37683,37.64943 L27.37683,38.70906 C27.37683,38.86974 27.24657,39 27.08589,39 L11.91411,39 C11.75343,39 11.62317,38.86974 11.62317,38.70906 L11.62317,37.64943 C11.62317,37.48875 11.75343,37.35849 11.91411,37.35849 L27.08589,37.35849 C27.24657,37.35849 27.37683,37.48875 27.37683,37.64943 Z M18.25668,29.71683 C17.89437,29.71683 17.6007,29.42316 17.6007,29.06085 C17.6007,28.69893 17.89437,28.40526 18.25668,28.40526 C18.6186,28.40526 18.91227,28.69893 18.91227,29.06085 C18.91227,29.42316 18.6186,29.71683 18.25668,29.71683 Z M20.7402,29.71683 C20.37789,29.71683 20.08422,29.42316 20.08422,29.06085 C20.08422,28.69893 20.37789,28.40526 20.7402,28.40526 C21.10212,28.40526 21.39618,28.69893 21.39618,29.06085 C21.39579,29.42316 21.10173,29.71683 20.7402,29.71683 Z" id="Shape"></path>
            </g>
        </g>
    </g>
</svg>