<?xml version="1.0" encoding="UTF-8"?>
<svg width="20px" height="14px" viewBox="0 0 20 14" version="1.1" xmlns="http://www.w3.org/2000/svg" xmlns:xlink="http://www.w3.org/1999/xlink">
    <title>tub1</title>
    <g id="Page-1" stroke="none" stroke-width="1" fill="none" fill-rule="evenodd">
        <g id="Home-Buying" transform="translate(-3222.000000, -848.000000)" fill="#FFFFFF">
            <g id="Group-15" transform="translate(3167.000000, 175.000000)">
                <g id="Group-14" transform="translate(1.000000, 0.000000)">
                    <g id="Group-13" transform="translate(27.000000, 512.000000)">
                        <g id="Group-7" transform="translate(17.000000, 89.000000)">
                            <g id="Group-9" transform="translate(0.000000, 58.000000)">
                                <g id="Group" transform="translate(10.000000, 14.000000)">
                                    <path d="M19.0267961,6.28880259 L18.8444013,6.28880259 L18.8444013,1.67488673 C18.8444013,0.770873786 18.1400647,0.0357928803 17.273657,0.0357928803 C16.5111327,0.0357928803 15.6309385,0.557216828 15.2250485,1.24860841 L14.6498382,2.22822006 L14.4720388,2.12763754 C14.2965049,2.02873786 14.0441424,2.06796117 13.9077023,2.21572816 L13.0363754,3.16084142 C12.8996764,3.30860841 12.9311974,3.50796117 13.1067314,3.60653722 L15.112233,4.72964401 C15.287767,4.82822006 15.498123,4.75987055 15.5822654,4.5771521 L16.0963107,3.4631068 C16.1807767,3.28038835 16.1071197,3.05190939 15.9319741,2.95313916 L15.6013592,2.76582524 L16.1676375,1.80148867 C16.3743689,1.44951456 16.9015534,1.12899676 17.273657,1.12899676 C17.5372168,1.12899676 17.7518447,1.37436893 17.7518447,1.67521036 L17.7518447,6.28912621 L0.910420712,6.28912621 C0.407702265,6.28912621 0,6.6966343 0,7.1994822 C0,7.70239482 0.407702265,8.10990291 0.910420712,8.10990291 L19.0265372,8.10990291 C19.5293851,8.10990291 19.9368932,7.7023301 19.9368932,7.1994822 C19.9372168,6.69631068 19.529644,6.28880259 19.0267961,6.28880259 L19.0267961,6.28880259 Z" id="Shape"></path>
                                    <path d="M18.2978641,8.68640777 L2.08970874,8.68640777 C1.85223301,8.68640777 1.66407767,8.78213592 1.58699029,8.94278317 C1.51449838,9.09300971 1.55016181,9.27605178 1.68491909,9.44504854 C2.17055016,10.0524272 3.08867314,10.8911974 4.72906149,11.507767 L4.42472492,12.8944337 C4.36012945,13.188932 4.54634304,13.4805178 4.84116505,13.5455663 C4.88045307,13.55411 4.91954693,13.5580583 4.95864078,13.5580583 C5.20957929,13.5580583 5.43592233,13.3841424 5.49177994,13.1288026 L5.77540453,11.837411 C6.89456311,12.1345631 8.27003236,12.3291262 9.96860841,12.3291262 C12.4875081,12.3291262 14.356699,11.9055016 15.7341748,11.3460841 L16.1256311,13.1288026 C16.1814887,13.384466 16.4075728,13.5580583 16.6587055,13.5580583 C16.6974757,13.5580583 16.7365696,13.5540453 16.7759871,13.5455663 C17.0711974,13.4808414 17.2577994,13.188932 17.1927508,12.8944337 L16.7828479,11.0278964 C16.7710032,10.9743689 16.749644,10.9260194 16.7244013,10.88 C17.6423948,10.3817476 18.2609061,9.8420712 18.6507443,9.41546926 C18.7986408,9.25307443 18.8469256,9.07631068 18.7828479,8.93035599 C18.7138511,8.77514563 18.5377346,8.68640777 18.2978641,8.68640777 L18.2978641,8.68640777 Z" id="Shape"></path>
                                </g>
                            </g>
                        </g>
                    </g>
                </g>
            </g>
        </g>
    </g>
</svg>