<?xml version="1.0" encoding="UTF-8"?>
<svg width="21px" height="24px" viewBox="0 0 21 24" version="1.1" xmlns="http://www.w3.org/2000/svg" xmlns:xlink="http://www.w3.org/1999/xlink">
    <title>Icon</title>
    <g id="Page-1" stroke="none" stroke-width="1" fill="none" fill-rule="evenodd">
        <g id="9" transform="translate(-385.000000, -567.000000)" fill="#FFFFFF">
            <g id="Menu" transform="translate(372.000000, 444.000000)">
                <g id="Intercom-bubble-chat" transform="translate(0.000000, 110.862500)">
                    <path d="M29.6941604,12.8625 C31.899621,12.8625 33.6875,14.6522676 33.6875,16.8536599 L33.6875,29.4447776 C33.6875,29.5166592 33.6855925,29.588097 33.6818256,29.6590435 L33.6743461,36.068944 L27.583,33.4355 L17.4683396,33.4359375 C15.262879,33.4359375 13.475,31.6461699 13.475,29.4447776 L13.475,16.8536599 C13.475,14.6494031 15.2687245,12.8625 17.4683396,12.8625 L29.6941604,12.8625 Z M17.4279378,27.3614959 C16.8995762,26.8758891 16.5694135,27.2105366 16.3948113,27.4328708 C16.2202091,27.6552051 16.2266825,28.0510857 16.3839474,28.3468443 C16.5412123,28.642603 19.7256048,30.536806 23.687792,30.5368062 C27.6499792,30.5368063 30.5921501,28.6819347 30.8395418,28.3468444 C31.0869336,28.011754 31.1703736,27.7702965 30.8395413,27.4640609 C30.5087089,27.1578252 30.3790568,27.2832758 29.9500992,27.4769107 C29.5211417,27.6705457 26.7090967,29.3435476 23.6266968,29.3151376 C20.544297,29.2867276 17.9562995,27.8471027 17.4279378,27.3614959 Z" id="Icon"></path>
                </g>
            </g>
        </g>
    </g>
</svg>