<?xml version="1.0" encoding="UTF-8"?>
<svg width="21px" height="27px" viewBox="0 0 21 27" version="1.1" xmlns="http://www.w3.org/2000/svg" xmlns:xlink="http://www.w3.org/1999/xlink">
    <title>noun_bot_2319497_ffffff (1)</title>
    <g id="Page-1" stroke="none" stroke-width="1" fill="none" fill-rule="evenodd">
        <g id="9" transform="translate(-386.000000, -455.000000)" fill="#FFFFFF">
            <g id="Menu" transform="translate(372.000000, 444.000000)">
                <g id="noun_bot_2319497_ffffff-(1)" transform="translate(14.087500, 11.637500)">
                    <path d="M18.054982,7.83461722 L18.054982,1.38964464 C18.054982,0.688565847 17.4846725,0.118256408 16.7835938,0.118256408 C16.082515,0.118256408 15.5122055,0.688565847 15.5122055,1.38964464 L15.5122055,5.36147719 C13.9639017,4.32607297 12.1046242,3.72093428 10.10625,3.72093428 C8.10787582,3.72093428 6.24859829,4.32607297 4.70029448,5.36147719 L4.70029448,1.38964464 C4.70029448,0.688565847 4.12998504,0.118256408 3.42890625,0.118256408 C2.72782746,0.118256408 2.15751802,0.688565847 2.15751802,1.38964464 L2.15751802,7.83461726 C1.02443335,9.42761968 0.355297852,11.3724833 0.355297852,13.4718865 L0.355297852,23.9993477 L4.26780397,23.9993477 L4.26780397,25.8692437 L15.9446961,25.8692437 L15.9446961,23.9993477 L19.8572021,23.9993477 L19.8572021,13.4718864 C19.8572021,11.3724832 19.1880667,9.42761964 18.054982,7.83461722 Z M16.2340805,1.38964464 C16.2340805,1.08651352 16.4804627,0.840131407 16.7835938,0.840131407 C17.0867248,0.840131407 17.333107,1.08651355 17.333107,1.38964464 L17.333107,6.9328683 C16.9944197,6.55891113 16.6263885,6.21231509 16.2340805,5.89444599 L16.2340805,1.38964464 L16.2340805,1.38964464 Z M2.87939298,1.38964464 C2.87939298,1.08651352 3.12577516,0.840131407 3.42890625,0.840131407 C3.73203734,0.840131407 3.97841948,1.08651355 3.97841948,1.38964464 L3.97841948,5.89444602 C3.58611142,6.21231512 3.21808031,6.55891117 2.87939298,6.93286833 L2.87939298,1.38964464 L2.87939298,1.38964464 Z M15.2228211,25.1473686 L4.98967897,25.1473686 L4.98967897,23.9993477 L15.2228211,23.9993477 L15.2228211,25.1473686 Z M19.1353271,23.2774727 L1.07717285,23.2774727 L1.07717285,13.4718864 C1.07717285,8.4931343 5.12749787,4.44280928 10.10625,4.44280928 C15.0850021,4.44280928 19.1353271,8.4931343 19.1353271,13.4718864 L19.1353271,23.2774727 Z" id="Shape" fill-rule="nonzero"></path>
                    <path d="M5.90400697,21.9271294 L14.3084931,21.9271294 L15.7487183,18.1327034 L4.46378177,18.1327034 L5.90400697,21.9271294 Z M13.8100891,21.2052544 L6.40241091,21.2052544 L5.50993652,18.8545784 L14.7025635,18.8545784 L13.8100891,21.2052544 Z" id="Shape" fill-rule="nonzero"></path>
                    <path d="M9.5803528,13.3115089 C9.5803528,11.6361809 8.21732026,10.2731483 6.54199219,10.2731483 C4.86666411,10.2731483 3.50398407,11.6361809 3.50398407,13.3115089 C3.50398407,14.986837 4.86666411,16.3495171 6.54199219,16.3495171 C8.21732027,16.3495171 9.5803528,14.986837 9.5803528,13.3115089 Z M4.22585907,13.3115089 C4.22585907,12.0341286 5.26496431,10.9950233 6.54199219,10.9950233 C7.81937256,10.9950233 8.8584778,12.0341286 8.8584778,13.3115089 C8.8584778,14.5885368 7.81937256,15.6276421 6.54199219,15.6276421 C5.26496431,15.6276421 4.22585907,14.5885368 4.22585907,13.3115089 Z" id="Shape" fill-rule="nonzero"></path>
                    <path d="M7.25329284,13.3115089 L7.97516784,13.3115089 C7.97516784,12.5216057 7.33224792,11.8786857 6.54199219,11.8786857 C5.75208891,11.8786857 5.10952148,12.5216057 5.10952148,13.3115089 L5.83139648,13.3115089 C5.83139648,12.9195534 6.15003662,12.6005607 6.54199219,12.6005607 C6.93430025,12.6005607 7.25329284,12.9195534 7.25329284,13.3115089 Z" id="Path"></path>
                    <path d="M13.6705078,10.2731483 C11.9951797,10.2731483 10.6321472,11.6361809 10.6321472,13.3115089 C10.6321472,14.986837 11.9951797,16.3495171 13.6705078,16.3495171 C15.3458359,16.3495171 16.7085159,14.986837 16.7085159,13.3115089 C16.7085159,11.6361809 15.3458359,10.2731483 13.6705078,10.2731483 Z M13.6705078,15.6276421 C12.3931274,15.6276421 11.3540222,14.5885368 11.3540222,13.3115089 C11.3540222,12.0341286 12.3931274,10.9950233 13.6705078,10.9950233 C14.9475357,10.9950233 15.9866409,12.0341286 15.9866409,13.3115089 C15.9866409,14.5885368 14.9475357,15.6276421 13.6705078,15.6276421 Z" id="Shape" fill-rule="nonzero"></path>
                    <path d="M13.6705078,11.8786857 C12.8806045,11.8786857 12.2376846,12.5216057 12.2376846,13.3115089 L12.9595596,13.3115089 C12.9595596,12.9195534 13.2785522,12.6005607 13.6705078,12.6005607 C14.0624634,12.6005607 14.381456,12.9195534 14.381456,13.3115089 L15.103331,13.3115089 C15.103331,12.5216057 14.4604111,11.8786857 13.6705078,11.8786857 Z" id="Path"></path>
                </g>
            </g>
        </g>
    </g>
</svg>