<?xml version="1.0" encoding="UTF-8"?>
<svg width="762px" height="705px" viewBox="0 0 762 705" version="1.1" xmlns="http://www.w3.org/2000/svg" xmlns:xlink="http://www.w3.org/1999/xlink">
    <title>noun_selling home_3377102</title>
    <g id="Page-1" stroke="none" stroke-width="1" fill="none" fill-rule="evenodd">
        <g id="noun_selling-home_3377102" fill="#000000">
            <path d="M314,0 L627,250 L627,309 L549,309 L549,434 C532,444 517,457 505,472 L505,309 L122,309 L122,578 L200,578 L200,351 L435,351 L435,578 L472,578 C472,593 476,607 480,621 L79,621 L79,309 L0,309 L0,250 L51,209 L51,8 L208,8 L208,85 L314,0 Z M626,432 C701,432 762,493 762,568 C762,644 701,705 626,705 C551,705 490,644 490,568 C490,493 551,432 626,432 Z M570,596 L593,592 C595,611 609,620 628,620 C641,620 659,615 659,598 C659,584 639,581 628,579 C605,573 574,567 574,537 C574,513 594,501 615,499 L615,481 L637,481 L637,499 C660,503 673,513 677,536 L654,539 C652,523 640,517 625,517 C614,517 596,520 596,534 C596,549 617,551 628,554 C651,561 682,565 682,596 C682,621 660,635 637,638 L637,656 L615,656 L615,638 C590,635 575,621 570,596 Z M391,578 L391,395 L244,395 L244,578 L391,578 Z M95,175 L164,119 L164,51 L95,51 L95,175 Z M314,56 L577,266 L50,266 L314,56 Z" id="Shape"></path>
        </g>
    </g>
</svg>