<?xml version="1.0" encoding="UTF-8"?>
<svg width="30px" height="30px" viewBox="0 0 30 30" version="1.1" xmlns="http://www.w3.org/2000/svg" xmlns:xlink="http://www.w3.org/1999/xlink">
    <title>noun_new home_2374140</title>
    <g id="Page-1" stroke="none" stroke-width="1" fill="none" fill-rule="evenodd">
        <g id="noun_new-home_2374140" fill="#000000" fill-rule="nonzero">
            <path d="M15.015625,1.02734327 C14.7453324,1.02312154 14.4848428,1.12849846 14.2935098,1.31946348 C14.1021768,1.5104285 13.9962986,1.77071477 14,2.04101507 L14,3.95898387 C13.9935335,4.50975753 14.4336309,4.96207989 14.984375,4.97070258 C15.2543246,4.97491224 15.5145087,4.86980109 15.7057825,4.67926293 C15.8970564,4.48872477 16.0031694,4.22894763 16,3.95898387 L16,2.04101507 C16.0075526,1.48948329 15.5671411,1.03596434 15.015625,1.02734327 Z M14.912109,6.93554638 C14.6764438,6.94667484 14.4523002,7.04075985 14.279297,7.20117138 L4.34375001,16.3886715 C4.0417004,16.6679824 3.94150824,17.1037663 4.09124254,17.486948 C4.24097683,17.8701297 4.61008643,18.1225265 5.02148441,18.1230465 L7.07812501,18.1230465 L7.07812501,27.9824215 C7.07818023,28.5346834 7.52586314,28.9824215 8.07812502,28.9824215 L21.945312,28.9824215 C22.4975739,28.9824215 22.9452568,28.5346834 22.945312,27.9824215 L22.945312,18.1230465 L25,18.1230465 C25.4125141,18.122666 25.7824711,17.8690452 25.9315682,17.484418 C26.0806652,17.0997908 25.978308,16.6630819 25.673828,16.3847655 L22.935547,13.8789055 L22.935547,8.74023388 C22.9354918,8.18797201 22.4878089,7.7402891 21.935547,7.74023388 L18.857422,7.74023388 C18.3051602,7.7402891 17.8574772,8.18797201 17.857422,8.74023388 L17.857422,9.23242148 L15.632812,7.19726508 C15.4368884,7.01774192 15.1775733,6.9235733 14.912109,6.93554638 Z M2.64257811,7.61914008 C2.22978957,7.6093634 1.8534284,7.85427257 1.69517189,8.23564488 C1.53691538,8.61701718 1.62930184,9.05644064 1.9277344,9.34179648 L3.28320311,10.6972655 C3.46432478,10.8836794 3.71090454,10.9922585 3.97070311,10.9999995 C4.38298676,11.0121582 4.76044603,10.7699625 4.92120035,10.3901156 C5.08195467,10.0102687 4.99302622,9.57069388 4.69726561,9.28320248 L3.34179691,7.92773388 C3.15877095,7.73635516 2.9073146,7.62537721 2.64257811,7.61914008 L2.64257811,7.61914008 Z M27.375,7.61912298 C27.1041367,7.62069136 26.8454867,7.73204477 26.658203,7.92773388 L25.302734,9.28320248 C25.0111225,9.56701449 24.9205463,9.99921473 25.0736685,10.3762295 C25.2267906,10.7532443 25.5930768,10.9998929 26,10.9999995 C26.2700018,10.9999995 26.5285259,10.8907981 26.716797,10.6972655 L28.072266,9.34179648 C28.368185,9.05862815 28.4615366,8.62364767 28.3078666,8.24399268 C28.1541967,7.8643377 27.7845689,7.61675367 27.375,7.61912298 L27.375,7.61912298 Z M14.962891,9.29492148 L18.148438,12.2089835 L18.150391,12.2109375 C18.1605974,12.2209248 18.1710164,12.2306924 18.181641,12.2402335 L22.423828,16.1230465 L7.57617191,16.1230465 L14.962891,9.29492148 Z M19.857422,9.74023348 L20.935547,9.74023348 L20.935547,12.0468745 L19.857422,11.0605465 L19.857422,9.74023348 Z M9.07812502,18.1738275 L20.945312,18.1738275 L20.945312,26.9824215 L18.279297,26.9824215 L18.279297,20.9199215 C18.2792418,20.3676596 17.8315589,19.9199767 17.279297,19.9199215 L12.726562,19.9199215 C12.1743001,19.9199767 11.7266172,20.3676596 11.726562,20.9199215 L11.726562,26.9824215 L9.07812502,26.9824215 L9.07812502,18.1738275 Z M2.01367191,20.9999995 C1.65303599,20.9948992 1.31759054,21.1843748 1.13578418,21.4958724 C0.953977825,21.8073699 0.953977825,22.1926291 1.13578418,22.5041267 C1.31759054,22.8156242 1.65303599,23.0050998 2.01367191,22.9999995 L3.93164061,22.9999995 C4.29227653,23.0050998 4.62772197,22.8156242 4.80952833,22.5041267 C4.99133469,22.1926291 4.99133469,21.8073699 4.80952833,21.4958724 C4.62772197,21.1843748 4.29227653,20.9948992 3.93164061,20.9999995 L2.01367191,20.9999995 Z M26.060547,20.9999995 C25.6999111,20.9948992 25.3644657,21.1843748 25.1826593,21.4958724 C25.000853,21.8073699 25.000853,22.1926291 25.1826593,22.5041267 C25.3644657,22.8156242 25.6999111,23.0050998 26.060547,22.9999995 L27.976562,22.9999995 C28.337198,23.0050998 28.6726434,22.8156242 28.8544498,22.5041267 C29.0362561,22.1926291 29.0362561,21.8073699 28.8544498,21.4958724 C28.6726434,21.1843748 28.337198,20.9948992 27.976562,20.9999995 L26.060547,20.9999995 Z M13.726562,21.9199215 L16.279297,21.9199215 L16.279297,26.9121085 L13.726562,26.9121085 L13.726562,21.9199215 Z" id="Shape" transform="translate(14.995117, 15.004821) rotate(-360.000000) translate(-14.995117, -15.004821) "></path>
        </g>
    </g>
</svg>