<?xml version="1.0" encoding="UTF-8"?>
<svg width="29px" height="24px" viewBox="0 0 29 24" version="1.1" xmlns="http://www.w3.org/2000/svg" xmlns:xlink="http://www.w3.org/1999/xlink">
    <title>noun_Email_223471_ffffff</title>
    <g id="Page-1" stroke="none" stroke-width="1" fill="none" fill-rule="evenodd">
        <g id="9" transform="translate(-384.000000, -676.000000)" fill="#FFFFFF" fill-rule="nonzero">
            <g id="Menu" transform="translate(372.000000, 444.000000)">
                <g id="Group-5" transform="translate(0.000000, 218.050000)">
                    <g id="noun_Email_223471_ffffff" transform="translate(12.250000, 14.700000)">
                        <path d="M19.4527394,12.7386968 C19.0930585,13.0684043 18.7633511,13.4580585 18.4935904,13.9076596 L14.5670745,10.1909574 L12.8885638,11.6296809 C12.7386968,11.7495745 12.5888298,11.8095213 12.4089894,11.8095213 C12.2291489,11.8095213 12.0493085,11.7495745 11.9294149,11.6296809 L10.2808777,10.1909574 L4.31617021,15.8259574 C4.16630319,15.9758245 3.98646277,16.0357713 3.80662234,16.0357713 C3.59680851,16.0357713 3.41696809,15.9458511 3.26710106,15.795984 C2.99734043,15.49625 2.99734043,15.0166755 3.29707447,14.7469149 L9.1418883,9.26178191 L3.29707447,4.28619681 C2.96736702,4.01643617 2.93739362,3.5368617 3.20715426,3.23712766 C3.47691489,2.90742021 3.95648936,2.87744681 4.2562234,3.14720745 L12.4089894,10.0410904 L20.5617553,3.14720745 C20.8914628,2.87744681 21.3410638,2.90742021 21.6108245,3.23712766 C21.8805851,3.56683511 21.8506117,4.01643617 21.5209043,4.28619681 L15.7060638,9.23180851 L19.4527394,12.7386968 Z M3.23712766,17.204734 C2.39787234,17.204734 1.67851064,16.5153457 1.67851064,15.646117 L1.67851064,3.11723404 C1.67851064,2.27797872 2.36789894,1.55861702 3.23712766,1.55861702 L21.5808511,1.55861702 C22.4201064,1.55861702 23.1394681,2.24800532 23.1394681,3.11723404 L23.1394681,11.1800798 C23.2593617,11.1800798 23.3492819,11.1501064 23.4691755,11.1501064 C23.8588298,11.1501064 24.248484,11.1800798 24.6381383,11.27 L24.6381383,3.11723404 C24.6381383,1.4387234 23.2593617,0.0599468085 21.5808511,0.0599468085 L3.23712766,0.0599468085 C1.55861702,0.0599468085 0.179840426,1.4387234 0.179840426,3.11723404 L0.179840426,15.646117 C0.179840426,17.3246277 1.55861702,18.7034043 3.23712766,18.7034043 L17.8341755,18.7034043 C17.6843085,18.2238298 17.6243617,17.7142819 17.5943883,17.204734 L3.23712766,17.204734 L3.23712766,17.204734 Z M27.6354787,15.0766223 C27.9951596,16.0657447 28.0551064,17.0848404 27.8452926,18.1339096 C27.7853457,18.463617 27.6354787,18.7633511 27.4256649,19.0031383 C27.065984,19.3927926 26.5864096,19.5126862 26.0768617,19.4527394 C25.657234,19.422766 25.2675798,19.2728989 24.9678457,18.9431915 C24.9078989,18.8832447 24.8779255,18.9132181 24.8479521,18.9431915 C24.5482181,19.1829787 24.248484,19.3328457 23.8588298,19.3927926 C22.8097606,19.572633 21.4010106,19.0930585 21.13125,17.4744947 C21.0413298,16.9649468 21.0713032,16.4853723 21.281117,16.0057979 C21.6707713,15.1065957 22.3601596,14.6569947 23.3193085,14.6270213 C23.7689096,14.5970479 24.1885372,14.6869681 24.5781915,14.9267553 C24.6381383,14.9567287 24.6681117,14.9567287 24.6980851,14.9267553 C24.8779255,14.7768883 25.057766,14.7469149 25.2675798,14.8368351 C25.4773936,14.9267553 25.5673138,15.1065957 25.5673138,15.3164096 C25.5673138,15.7060638 25.5673138,16.1256915 25.5673138,16.5453191 C25.5673138,16.9349734 25.5673138,17.3246277 25.5673138,17.7142819 C25.5673138,17.8341755 25.5972872,17.9840426 25.6272606,18.1039362 C25.657234,18.2238298 25.7471543,18.31375 25.8370745,18.3736968 C26.0768617,18.4935904 26.3166489,18.4935904 26.5564362,18.4336436 C26.6763298,18.4036702 26.7362766,18.2837766 26.7962234,18.163883 C26.8861436,17.9240957 26.916117,17.6843085 26.9460904,17.4445213 C26.9760638,16.8150798 26.9460904,16.1556649 26.7362766,15.5561968 C26.4365426,14.6869681 25.8370745,14.1174734 24.9678457,13.8477128 C24.0686436,13.5779521 23.1694415,13.5479787 22.3002128,13.8477128 C21.0413298,14.2973138 20.3519415,15.196516 20.1421277,16.5153457 C20.022234,17.3246277 20.1121543,18.1039362 20.5018085,18.8232979 C21.0113564,19.8124202 21.8506117,20.3219681 22.9596277,20.5018085 C23.7389362,20.6217021 24.4882713,20.5018085 25.207633,20.1421277 C25.4773936,19.9922606 25.7771277,20.0821809 25.9269947,20.3519415 C26.0768617,20.6217021 25.9569681,20.9214362 25.7171809,21.0413298 C24.9378723,21.4609574 24.1285904,21.6407979 23.2593617,21.5808511 C22.5100266,21.5209043 21.8206383,21.3410638 21.1911968,20.9514096 C20.1421277,20.3219681 19.5126862,19.3927926 19.2429255,18.2238298 C18.9731649,16.9949202 19.1230319,15.795984 19.7824468,14.7169415 C20.4718351,13.6079255 21.4909309,12.9485106 22.7797872,12.7386968 C23.7089628,12.5888298 24.6381383,12.6487766 25.5373404,12.978484 C26.5264628,13.2782181 27.2458245,14.0275532 27.6354787,15.0766223 Z M24.5182447,16.605266 C24.5182447,16.3055319 24.3983511,16.0957181 24.1585638,15.8859043 C23.9787234,15.7360372 23.798883,15.6760904 23.5590957,15.646117 C22.9596277,15.5861702 22.5100266,15.795984 22.2702394,16.2755585 C22.0304521,16.755133 22.0304521,17.2646809 22.2702394,17.7442553 C22.6299202,18.4935904 23.7089628,18.6434574 24.2784574,18.0439894 C24.4283245,17.8941223 24.5182447,17.7142819 24.5182447,17.4744947 C24.5182447,17.3246277 24.5182447,17.1747606 24.5182447,17.0248936 C24.5182447,16.905 24.5182447,16.755133 24.5182447,16.605266 Z" id="Shape"></path>
                    </g>
                </g>
            </g>
        </g>
    </g>
</svg>