<?xml version="1.0" encoding="UTF-8"?>
<svg width="33px" height="40px" viewBox="0 0 33 40" version="1.1" xmlns="http://www.w3.org/2000/svg" xmlns:xlink="http://www.w3.org/1999/xlink">
    <title>Shape</title>
    <g id="Page-1" stroke="none" stroke-width="1" fill="none" fill-rule="evenodd">
        <g id="10" transform="translate(-127.000000, -513.000000)" fill="#b69c9d" fill-rule="nonzero">
            <g id="Shape" transform="translate(127.000000, 513.000000)">
                <path d="M4.125,4.13708419 C4.125,1.85223638 5.98527187,0 8.26759313,0 L24.7324069,0 C27.0202969,0 28.875,1.85018625 28.875,4.13708419 L28.875,24.7379158 C28.875,27.0227636 27.0147281,28.875 24.7324069,28.875 L8.26759313,28.875 C5.97970312,28.875 4.125,27.0248137 4.125,24.7379158 L4.125,4.13708419 Z M6.1875,4.125 L26.8125,4.125 L26.8125,16.5 L6.1875,16.5 L6.1875,4.125 Z M8.25,30.9375 L10.3125,30.9375 L2.0625,39.1875 L0,39.1875 L8.25,30.9375 Z M24.75,30.9375 L22.6875,30.9375 L30.9375,39.1875 L33,39.1875 L24.75,30.9375 Z M12.375,30.9375 L20.625,30.9375 L22.6875,33 L10.3125,33 L12.375,30.9375 Z M8.25,35.0625 L24.75,35.0625 L26.8125,37.125 L6.1875,37.125 L8.25,35.0625 Z M10.3125,26.8125 C11.4515775,26.8125 12.375,25.8890878 12.375,24.75 C12.375,23.6109122 11.4515775,22.6875 10.3125,22.6875 C9.1734225,22.6875 8.25,23.6109122 8.25,24.75 C8.25,25.8890878 9.1734225,26.8125 10.3125,26.8125 Z M22.6875,26.8125 C23.8265775,26.8125 24.75,25.8890878 24.75,24.75 C24.75,23.6109122 23.8265775,22.6875 22.6875,22.6875 C21.5484225,22.6875 20.625,23.6109122 20.625,24.75 C20.625,25.8890878 21.5484225,26.8125 22.6875,26.8125 Z"></path>
            </g>
        </g>
    </g>
</svg>