<?xml version="1.0" encoding="UTF-8"?>
<svg width="27px" height="27px" viewBox="0 0 27 27" version="1.1" xmlns="http://www.w3.org/2000/svg" xmlns:xlink="http://www.w3.org/1999/xlink">
    <title>noun_menu_745026</title>
    <g id="Page-1" stroke="none" stroke-width="1" fill="none" fill-rule="evenodd">
        <g id="8" transform="translate(-380.000000, -381.000000)" fill="#FFFFFF" fill-rule="nonzero">
            <g id="Group-6" transform="translate(363.000000, 364.000000)">
                <g id="noun_menu_745026" transform="translate(17.000000, 17.000000)">
                    <path d="M22.95,26.29125 L19.1025,26.29125 C16.875,26.29125 15.0525,24.46875 15.0525,22.24125 L15.0525,18.39375 C15.0525,16.16625 16.875,14.34375 19.1025,14.34375 L22.95,14.34375 C25.1775,14.34375 27,16.16625 27,18.39375 L27,22.24125 C27,24.46875 25.1775,26.29125 22.95,26.29125 Z" id="Path"></path>
                    <path d="M22.95,11.98125 L19.1025,11.98125 C16.875,11.98125 15.0525,10.15875 15.0525,7.93125 L15.0525,4.08375 C15.0525,1.85625 16.875,0.03375 19.1025,0.03375 L22.95,0.03375 C25.1775,0.03375 27,1.85625 27,4.08375 L27,7.93125 C27,10.15875 25.1775,11.98125 22.95,11.98125 Z" id="Path"></path>
                    <path d="M7.8975,11.98125 L4.05,11.98125 C1.8225,11.98125 0,10.15875 0,7.93125 L0,4.08375 C0,1.85625 1.8225,0.03375 4.05,0.03375 L7.8975,0.03375 C10.125,0.03375 11.9475,1.85625 11.9475,4.08375 L11.9475,7.93125 C11.9475,10.15875 10.125,11.98125 7.8975,11.98125 Z" id="Path"></path>
                    <path d="M7.8975,26.29125 L4.05,26.29125 C1.8225,26.29125 0,24.46875 0,22.24125 L0,18.39375 C0,16.16625 1.8225,14.34375 4.05,14.34375 L7.8975,14.34375 C10.125,14.34375 11.9475,16.16625 11.9475,18.39375 L11.9475,22.24125 C11.9475,24.46875 10.125,26.29125 7.8975,26.29125 Z" id="Path"></path>
                </g>
            </g>
        </g>
    </g>
</svg>