<?xml version="1.0" encoding="UTF-8"?>
<svg width="25px" height="27px" viewBox="0 0 25 27" version="1.1" xmlns="http://www.w3.org/2000/svg" xmlns:xlink="http://www.w3.org/1999/xlink">
    <title>noun_add event_1631788_ffffff</title>
    <g id="Page-1" stroke="none" stroke-width="1" fill="none" fill-rule="evenodd">
        <g id="9" transform="translate(-385.000000, -510.000000)" fill="#FFFFFF" fill-rule="nonzero">
            <g id="Menu" transform="translate(372.000000, 444.000000)">
                <g id="Group-6" transform="translate(0.000000, 55.125000)">
                    <g id="noun_add-event_1631788_ffffff" transform="translate(13.475000, 11.637500)">
                        <path d="M20.9475,2.3275 L17.45625,2.3275 L17.45625,0 L16.2925,0 L16.2925,2.3275 L6.9825,2.3275 L6.9825,0 L5.81875,0 L5.81875,2.3275 L2.3275,2.3275 C1.04207621,2.3275 0,3.36957621 0,4.655 L0,22.11125 C0,23.3966738 1.04207621,24.43875 2.3275,24.43875 L20.9475,24.43875 C22.2329949,24.43875 23.275,23.3966738 23.275,22.11125 L23.275,4.655 C23.275,3.36957621 22.2329949,2.3275 20.9475,2.3275 Z M22.11125,22.11125 C22.11125,22.752932 21.589182,23.275 20.9475,23.275 L2.3275,23.275 C1.68581803,23.275 1.16375,22.752932 1.16375,22.11125 L1.16375,10.47375 L22.11125,10.47375 L22.11125,22.11125 Z M22.11125,9.31 L1.16375,9.31 L1.16375,4.655 C1.16375,4.01331803 1.68581803,3.49125 2.3275,3.49125 L5.81875,3.49125 L5.81875,5.81875 L6.9825,5.81875 L6.9825,3.49125 L16.2925,3.49125 L16.2925,5.81875 L17.45625,5.81875 L17.45625,3.49125 L20.9475,3.49125 C21.589182,3.49125 22.11125,4.01331803 22.11125,4.655 L22.11125,9.31 Z M11.0898757,17.45625 L6.98244949,17.4562001 L6.98244949,16.2924501 L11.0898757,16.2924501 L11.0898757,12.219375 L12.2536523,12.219375 L12.2536523,16.2925 L16.292551,16.2924501 L16.292551,17.4562001 L12.2536522,17.4562001 L12.2536522,21.5294261 L11.0898756,21.5294261 L11.0898756,17.45625 L11.0898757,17.45625 Z" id="Shape"></path>
                    </g>
                </g>
            </g>
        </g>
    </g>
</svg>