<?xml version="1.0" encoding="UTF-8"?>
<svg width="22px" height="21px" viewBox="0 0 22 21" version="1.1" xmlns="http://www.w3.org/2000/svg" xmlns:xlink="http://www.w3.org/1999/xlink">
    <title>noun_Heart_3586222</title>
    <g id="Page-1" stroke="none" stroke-width="1" fill="none" fill-rule="evenodd">
        <g id="Home-Buying" transform="translate(-3208.000000, -726.000000)" fill="#84adae" fill-rule="nonzero">
            <g id="Group-15" transform="translate(3167.000000, 175.000000)">
                <g id="Group-14" transform="translate(1.000000, 0.000000)">
                    <g id="Group-13" transform="translate(27.000000, 512.000000)">
                        <g id="noun_Heart_3586222" transform="translate(13.000000, 39.000000)">
                            <path d="M21.975,6.4175 C21.9983637,8.42452541 21.4447467,10.3960267 20.38,12.0975 C19.5054347,13.5019614 18.4412289,14.7790083 17.2175,15.8925 C15.6832268,17.343332 14.0025621,18.6310597 12.2025,19.735 C11.875,19.9325 11.53,20.105 11.185,20.2725 C11.0995197,20.3087601 11.0029803,20.3087601 10.9175,20.2725 C7.985,18.715 5.3,16.83 3.1275,14.2725 C1.95194794,12.9413532 1.05815066,11.3859248 0.5,9.7 C-0.03,8.015 -0.1675,6.3125 0.375,4.6025 C0.880792289,2.85805475 2.11846555,1.41881495 3.7675,0.6575 C4.74307745,0.232465872 5.82301671,0.107154629 6.87,0.2975 C8.56,0.545 9.7975,1.5 10.75,2.8575 C10.88,3.045 10.8875,3.045 11.035,2.8575 C11.9125,1.75 12.9775,0.8775 14.3625,0.5 C16.58,-0.12 18.5525,0.2975 20.18,2 C21.3456546,3.17277737 21.9922544,4.76406123 21.975,6.4175 Z" id="Path"></path>
                        </g>
                    </g>
                </g>
            </g>
        </g>
    </g>
</svg>