<?xml version="1.0" encoding="UTF-8"?>
<svg width="19px" height="18px" viewBox="0 0 19 18" version="1.1" xmlns="http://www.w3.org/2000/svg" xmlns:xlink="http://www.w3.org/1999/xlink">
    <title>Combined Shape</title>
    <g id="Page-1" stroke="none" stroke-width="1" fill="none" fill-rule="evenodd">
        <g id="Home-Buying" transform="translate(-2198.000000, -512.000000)" fill="#84adae">
            <g id="Group-15" transform="translate(2159.000000, 175.000000)">
                <g id="Group-4" transform="translate(24.000000, 300.000000)">
                    <g id="Group-17" transform="translate(0.000000, 24.000000)">
                        <g id="24x24/On-Light/Edit" transform="translate(13.000000, 11.000000)">
                            <path d="M15,8 L15,18.5857864 C15,18.8510029 14.8946432,19.1053568 14.7071068,19.2928932 L11.7071068,22.2928932 C11.3165825,22.6834175 10.6834175,22.6834175 10.2928932,22.2928932 L7.29289322,19.2928932 C7.10535684,19.1053568 7,18.8510029 7,18.5857864 L7,8 L15,8 Z M7,4 C7,1.790861 8.790861,4.05812251e-16 11,0 C13.209139,-4.05812251e-16 15,1.790861 15,4 L15,6 L7,6 L7,4 Z" id="Combined-Shape" transform="translate(11.000000, 11.292893) rotate(45.000000) translate(-11.000000, -11.292893) "></path>
                        </g>
                    </g>
                </g>
            </g>
        </g>
    </g>
</svg>